<?xml version="1.0" encoding="utf-8"?>
<svg viewBox="8.475 197.896 475.575 97.265" xmlns="http://www.w3.org/2000/svg">
  <polygon style="stroke: rgb(0, 0, 0); paint-order: fill; stroke-miterlimit: 1; fill-rule: nonzero; fill: rgb(163, 245, 255);" points="32.015 204.521 23.619 212.922 32.02 221.323 40.422 221.323 48.824 221.323 57.225 212.922 48.824 204.52 40.422 204.52"/>
  <polygon style="stroke: rgb(0, 0, 0); paint-order: fill; stroke-miterlimit: 1; fill-rule: nonzero; fill: rgb(163, 245, 255); transform-box: fill-box; transform-origin: 50% 50%;" points="15.212 221.324 6.815 229.725 15.217 238.126 23.619 238.126 32.02 238.126 40.422 229.725 32.02 221.323 23.619 221.323" transform="matrix(0, -1, 1, 0, -0.000015, 0)"/>
  <polygon style="stroke: rgb(0, 0, 0); paint-order: fill; stroke-miterlimit: 1; fill-rule: nonzero; fill: rgb(163, 245, 255); transform-origin: 57.224px 263.332px;" points="48.818 254.931 40.421 263.332 48.822 271.733 57.224 271.733 65.626 271.733 74.027 263.332 65.626 254.93 57.224 254.93" transform="matrix(0, -1, 1, 0, -0.000001, 0.000003)"/>
  <polygon style="stroke: rgb(0, 0, 0); paint-order: fill; stroke-miterlimit: 1; fill-rule: nonzero; fill: rgb(163, 245, 255); transform-origin: 40.422px 246.528px;" points="32.015 238.128 23.619 246.528 32.02 254.93 40.422 254.93 48.824 254.93 57.225 246.528 48.824 238.127 40.422 238.127" transform="matrix(-1, 0, 0, -1, 0.000004, 0.000004)"/>
  <polygon style="stroke: rgb(0, 0, 0); paint-order: fill; stroke-miterlimit: 1; fill-rule: nonzero; fill: rgb(163, 245, 255);" points="32.015 271.735 23.619 280.135 32.02 288.537 40.422 288.537 48.824 288.537 57.225 280.135 48.824 271.733 40.422 271.733"/>
  <polygon style="stroke: rgb(0, 0, 0); paint-order: fill; stroke-miterlimit: 1; fill-rule: nonzero; fill: rgb(163, 245, 255); transform-origin: 82.429px 229.726px;" points="74.022 221.326 65.626 229.726 74.028 238.128 82.429 238.128 90.831 238.128 99.233 229.726 90.831 221.324 82.429 221.324" transform="matrix(0, -1, 1, 0, -0.000008, 0.000006)"/>
  <polygon style="stroke: rgb(0, 0, 0); paint-order: fill; stroke-miterlimit: 1; fill-rule: nonzero; fill: rgb(163, 245, 255); transform-origin: 116.036px 263.332px;" points="107.629 254.931 99.233 263.332 107.634 271.733 116.036 271.733 124.438 271.733 132.84 263.332 124.438 254.93 116.036 254.93" transform="matrix(0, -1, 1, 0, -0.000022, -0.000018)"/>
  <polygon style="stroke: rgb(0, 0, 0); paint-order: fill; stroke-miterlimit: 1; fill-rule: nonzero; fill: rgb(163, 245, 255); transform-origin: 99.232px 246.528px;" points="90.826 238.128 82.429 246.528 90.831 254.93 99.232 254.93 107.633 254.93 116.035 246.528 107.633 238.126 99.232 238.126" transform="matrix(-1, 0, 0, -1, 0.000027, 0.000004)"/>
  <polygon style="stroke: rgb(0, 0, 0); paint-order: fill; stroke-miterlimit: 1; fill-rule: nonzero; fill: rgb(163, 245, 255); transform-origin: 116.036px 229.725px;" points="107.629 221.325 99.233 229.725 107.634 238.127 116.036 238.127 124.438 238.127 132.839 229.725 124.438 221.323 116.036 221.323" transform="matrix(0, -1, 1, 0, -0.000017, -0.000023)"/>
  <polygon style="stroke: rgb(0, 0, 0); paint-order: fill; stroke-miterlimit: 1; fill-rule: nonzero; fill: rgb(163, 245, 255); transform-origin: 82.43px 263.332px;" points="74.023 254.931 65.627 263.332 74.029 271.733 82.431 271.733 90.832 271.733 99.234 263.332 90.832 254.93 82.431 254.93" transform="matrix(0, -1, 1, 0, -0.000018, -0.000013)"/>
  <polygon style="stroke: rgb(0, 0, 0); paint-order: fill; stroke-miterlimit: 1; fill-rule: nonzero; fill: rgb(163, 245, 255);" points="149.638 204.521 141.242 212.922 149.643 221.323 158.044 221.323 166.445 221.323 174.848 212.922 166.445 204.52 158.044 204.52"/>
  <polygon style="stroke: rgb(0, 0, 0); paint-order: fill; stroke-miterlimit: 1; fill-rule: nonzero; fill: rgb(163, 245, 255); transform-origin: 141.241px 229.726px;" points="132.834 221.326 124.438 229.726 132.839 238.128 141.241 238.128 149.642 238.128 158.044 229.726 149.642 221.324 141.241 221.324" transform="matrix(0, -1, 1, 0, -0.000004, 0.000009)"/>
  <polygon style="stroke: rgb(0, 0, 0); paint-order: fill; stroke-miterlimit: 1; fill-rule: nonzero; fill: rgb(163, 245, 255); transform-origin: 158.044px 246.528px;" points="149.638 238.128 141.241 246.528 149.642 254.93 158.044 254.93 166.446 254.93 174.847 246.528 166.446 238.127 158.044 238.127" transform="matrix(-1, 0, 0, -1, 0.000019, 0.000004)"/>
  <polygon style="stroke: rgb(0, 0, 0); paint-order: fill; stroke-miterlimit: 1; fill-rule: nonzero; fill: rgb(163, 245, 255);" points="149.638 271.735 141.242 280.135 149.643 288.537 158.044 288.537 166.445 288.537 174.848 280.135 166.445 271.733 158.044 271.733"/>
  <polygon style="stroke: rgb(0, 0, 0); paint-order: fill; stroke-miterlimit: 1; fill-rule: nonzero; fill: rgb(163, 245, 255); transform-origin: 141.242px 263.332px;" points="132.835 254.931 124.439 263.332 132.84 271.733 141.242 271.733 149.643 271.733 158.044 263.332 149.643 254.93 141.242 254.93" transform="matrix(0, -1, 1, 0, -0.000022, -0.000017)"/>
  <polygon style="stroke: rgb(0, 0, 0); paint-order: fill; stroke-miterlimit: 1; fill-rule: nonzero; fill: rgb(163, 245, 255); transform-origin: 200.052px 229.725px;" points="191.646 221.325 183.249 229.725 191.65 238.127 200.052 238.127 208.454 238.127 216.856 229.725 208.454 221.323 200.052 221.323" transform="matrix(0, -1, 1, 0, 0.000016, 0.00001)"/>
  <polygon style="stroke: rgb(0, 0, 0); paint-order: fill; stroke-miterlimit: 1; fill-rule: nonzero; fill: rgb(163, 245, 255);" points="208.449 271.735 200.052 280.135 208.455 288.537 216.856 288.537 225.257 288.537 233.66 280.135 225.257 271.733 216.856 271.733"/>
  <polygon style="stroke: rgb(0, 0, 0); paint-order: fill; stroke-miterlimit: 1; fill-rule: nonzero; fill: rgb(163, 245, 255); transform-origin: 200.052px 263.332px;" points="191.646 254.932 183.249 263.332 191.65 271.734 200.052 271.734 208.454 271.734 216.856 263.332 208.454 254.93 200.052 254.93" transform="matrix(0, -1, 1, 0, 0.000011, 0.000015)"/>
  <polygon style="paint-order: fill; fill-rule: nonzero; stroke: rgb(2, 2, 2); stroke-miterlimit: 1; fill: rgb(255, 255, 255);" points="267.261 204.521 258.864 212.922 267.266 221.323 275.667 221.323 284.07 221.323 292.472 212.922 284.07 204.52 275.667 204.52"/>
  <polygon style="paint-order: fill; fill-rule: nonzero; stroke: rgb(2, 2, 2); stroke-miterlimit: 1; fill: rgb(255, 255, 255); transform-origin: 275.668px 246.528px;" points="267.262 238.128 258.864 246.528 267.267 254.93 275.668 254.93 284.07 254.93 292.472 246.528 284.07 238.127 275.668 238.127" transform="matrix(-1, 0, 0, -1, 0.000034, 0.000004)"/>
  <polygon style="paint-order: fill; fill-rule: nonzero; stroke: rgb(2, 2, 2); stroke-miterlimit: 1; fill: rgb(255, 255, 255);" points="267.261 271.735 258.864 280.135 267.266 288.537 275.667 288.537 284.07 288.537 292.472 280.135 284.07 271.733 275.667 271.733"/>
  <polygon style="paint-order: fill; fill-rule: nonzero; stroke: rgb(2, 2, 2); stroke-miterlimit: 1; fill: rgb(255, 255, 255); transform-origin: 292.471px 229.725px;" points="284.065 221.325 275.667 229.725 284.07 238.127 292.472 238.127 300.872 238.127 309.274 229.725 300.872 221.324 292.472 221.324" transform="matrix(0, -1, 1, 0, -0.000007, -0.000013)"/>
  <polygon style="paint-order: fill; fill-rule: nonzero; stroke: rgb(2, 2, 2); stroke-miterlimit: 1; fill: rgb(255, 255, 255); transform-origin: 258.864px 263.331px;" points="250.458 254.931 242.061 263.331 250.462 271.733 258.864 271.733 267.266 271.733 275.667 263.331 267.266 254.93 258.864 254.93" transform="matrix(0, -1, 1, 0, -0.000006, 0.000009)"/>
  <polygon style="paint-order: fill; fill-rule: nonzero; stroke: rgb(2, 2, 2); stroke-miterlimit: 1; fill: rgb(255, 255, 255);" points="326.072 204.521 317.677 212.922 326.078 221.323 334.48 221.323 342.881 221.323 351.282 212.922 342.881 204.52 334.48 204.52"/>
  <polygon style="paint-order: fill; fill-rule: nonzero; stroke: rgb(2, 2, 2); stroke-miterlimit: 1; fill: rgb(255, 255, 255); transform-origin: 317.676px 229.725px;" points="309.269 221.325 300.873 229.725 309.274 238.127 317.677 238.127 326.079 238.127 334.48 229.725 326.079 221.323 317.677 221.323" transform="matrix(0, -1, 1, 0, 0.000024, 0.000017)"/>
  <polygon style="paint-order: fill; fill-rule: nonzero; stroke: rgb(2, 2, 2); stroke-miterlimit: 1; fill: rgb(255, 255, 255); transform-origin: 351.282px 263.331px;" points="342.876 254.931 334.48 263.331 342.881 271.733 351.282 271.733 359.684 271.733 368.085 263.331 359.684 254.93 351.282 254.93" transform="matrix(0, -1, 1, 0, -0.000007, 0.000008)"/>
  <polygon style="paint-order: fill; fill-rule: nonzero; stroke: rgb(2, 2, 2); stroke-miterlimit: 1; fill: rgb(255, 255, 255); transform-origin: 334.479px 246.528px;" points="326.073 238.128 317.676 246.528 326.077 254.93 334.479 254.93 342.881 254.93 351.282 246.528 342.881 238.127 334.479 238.127" transform="matrix(-1, 0, 0, -1, -0.000013, 0.000004)"/>
  <polygon style="paint-order: fill; fill-rule: nonzero; stroke: rgb(2, 2, 2); stroke-miterlimit: 1; fill: rgb(255, 255, 255);" points="326.072 271.735 317.677 280.135 326.078 288.537 334.48 288.537 342.881 288.537 351.282 280.135 342.881 271.733 334.48 271.733"/>
  <polygon style="paint-order: fill; fill-rule: nonzero; stroke: rgb(2, 2, 2); stroke-miterlimit: 1; fill: rgb(255, 255, 255); transform-origin: 393.292px 246.528px;" points="384.885 238.128 376.489 246.528 384.89 254.93 393.291 254.93 401.694 254.93 410.096 246.528 401.694 238.127 393.291 238.127" transform="matrix(-1, 0, 0, -1, -0.00002, 0.000004)"/>
  <polygon style="paint-order: fill; fill-rule: nonzero; stroke: rgb(2, 2, 2); stroke-miterlimit: 1; fill: rgb(255, 255, 255);" points="443.696 204.521 435.299 212.922 443.7 221.323 452.102 221.323 460.503 221.323 468.906 212.922 460.503 204.52 452.102 204.52"/>
  <polygon style="paint-order: fill; fill-rule: nonzero; stroke: rgb(2, 2, 2); stroke-miterlimit: 1; fill: rgb(255, 255, 255); transform-origin: 452.103px 246.528px;" points="443.696 238.128 435.3 246.528 443.702 254.93 452.103 254.93 460.504 254.93 468.906 246.528 460.504 238.127 452.103 238.127" transform="matrix(-1, 0, 0, -1, 0.000069, 0.000004)"/>
  <polygon style="paint-order: fill; fill-rule: nonzero; stroke: rgb(2, 2, 2); stroke-miterlimit: 1; fill: rgb(255, 255, 255);" points="443.696 271.735 435.299 280.135 443.7 288.537 452.102 288.537 460.503 288.537 468.906 280.135 460.503 271.733 452.102 271.733"/>
  <polygon style="paint-order: fill; fill-rule: nonzero; stroke: rgb(2, 2, 2); stroke-miterlimit: 1; fill: rgb(255, 255, 255); transform-origin: 468.906px 229.726px;" points="460.499 221.326 452.102 229.726 460.504 238.128 468.906 238.128 477.308 238.128 485.709 229.726 477.308 221.324 468.906 221.324" transform="matrix(0, -1, 1, 0, 0.000001, 0.000015)"/>
  <polygon style="paint-order: fill; fill-rule: nonzero; stroke: rgb(2, 2, 2); stroke-miterlimit: 1; fill: rgb(255, 255, 255); transform-origin: 435.298px 263.332px;" points="426.892 254.931 418.495 263.332 426.897 271.733 435.298 271.733 443.7 271.733 452.102 263.332 443.7 254.93 435.298 254.93" transform="matrix(0, -1, 1, 0, 0.000005, 0.000009)"/>
</svg>